<mxfile host="app.diagrams.net" modified="2020-07-05T15:07:36.642Z" agent="5.0 (Windows NT 10.0; Win64; x64) AppleWebKit/537.36 (KHTML, like Gecko) Chrome/83.0.4103.116 Safari/537.36" etag="3Xaxmn6DXlPHm-f9mza3" version="13.3.8" type="github">
  <diagram id="BjjpTn-qF1GYdpaqc0aV" name="Page-1">
    <mxGraphModel dx="93" dy="1683" grid="1" gridSize="10" guides="1" tooltips="1" connect="1" arrows="1" fold="1" page="1" pageScale="1" pageWidth="827" pageHeight="1169" math="0" shadow="0">
      <root>
        <mxCell id="0" />
        <mxCell id="1" parent="0" />
        <mxCell id="iygMJ3F_EwSeTFs6lWKo-11" value="" style="ellipse;html=1;shape=startState;fillColor=#000000;strokeColor=#ff0000;" parent="1" vertex="1">
          <mxGeometry x="1635" y="40" width="30" height="30" as="geometry" />
        </mxCell>
        <mxCell id="iygMJ3F_EwSeTFs6lWKo-12" value="" style="edgeStyle=orthogonalEdgeStyle;html=1;verticalAlign=bottom;endArrow=open;endSize=8;strokeColor=#ff0000;exitX=0.5;exitY=1;exitDx=0;exitDy=0;entryX=0.5;entryY=0;entryDx=0;entryDy=0;" parent="1" source="iygMJ3F_EwSeTFs6lWKo-11" target="iygMJ3F_EwSeTFs6lWKo-9" edge="1">
          <mxGeometry relative="1" as="geometry">
            <mxPoint x="1645" y="180" as="targetPoint" />
            <Array as="points">
              <mxPoint x="1650" y="140" />
              <mxPoint x="1650" y="140" />
            </Array>
          </mxGeometry>
        </mxCell>
        <mxCell id="iygMJ3F_EwSeTFs6lWKo-9" value="Calm" style="swimlane;html=1;fontStyle=1;align=center;verticalAlign=middle;childLayout=stackLayout;horizontal=1;startSize=30;horizontalStack=0;resizeParent=0;resizeLast=1;container=0;fontColor=#000000;collapsible=0;rounded=1;arcSize=30;strokeColor=#ff0000;fillColor=#ffffc0;swimlaneFillColor=#ffffc0;dropTarget=0;" parent="1" vertex="1">
          <mxGeometry x="1570" y="210" width="160" height="60" as="geometry" />
        </mxCell>
        <mxCell id="iygMJ3F_EwSeTFs6lWKo-10" value="Hunger++" style="text;html=1;strokeColor=none;fillColor=none;align=center;verticalAlign=middle;spacingLeft=4;spacingRight=4;whiteSpace=wrap;overflow=hidden;rotatable=0;fontColor=#000000;" parent="iygMJ3F_EwSeTFs6lWKo-9" vertex="1">
          <mxGeometry y="30" width="160" height="30" as="geometry" />
        </mxCell>
        <mxCell id="iygMJ3F_EwSeTFs6lWKo-17" value="" style="edgeStyle=orthogonalEdgeStyle;html=1;verticalAlign=bottom;endArrow=open;endSize=8;strokeColor=#ff0000;exitX=0.139;exitY=0.005;exitDx=0;exitDy=0;entryX=1;entryY=0.5;entryDx=0;entryDy=0;exitPerimeter=0;" parent="1" source="iygMJ3F_EwSeTFs6lWKo-9" target="iygMJ3F_EwSeTFs6lWKo-18" edge="1">
          <mxGeometry relative="1" as="geometry">
            <mxPoint x="1390" y="120" as="targetPoint" />
            <Array as="points">
              <mxPoint x="1592" y="190" />
              <mxPoint x="1520" y="190" />
            </Array>
            <mxPoint x="1660" y="80" as="sourcePoint" />
          </mxGeometry>
        </mxCell>
        <mxCell id="iygMJ3F_EwSeTFs6lWKo-19" value="stayIdle" style="edgeLabel;html=1;align=center;verticalAlign=middle;resizable=0;points=[];shadow=0;fontStyle=1" parent="iygMJ3F_EwSeTFs6lWKo-17" vertex="1" connectable="0">
          <mxGeometry x="-0.115" relative="1" as="geometry">
            <mxPoint x="28.99" y="5" as="offset" />
          </mxGeometry>
        </mxCell>
        <mxCell id="iygMJ3F_EwSeTFs6lWKo-18" value="Hunger&amp;gt;=400" style="rhombus;whiteSpace=wrap;html=1;fillColor=#ffffc0;strokeColor=#ff0000;" parent="1" vertex="1">
          <mxGeometry x="1400" y="210" width="120" height="50" as="geometry" />
        </mxCell>
        <mxCell id="iygMJ3F_EwSeTFs6lWKo-20" value="" style="edgeStyle=orthogonalEdgeStyle;html=1;verticalAlign=bottom;endArrow=open;endSize=8;strokeColor=#ff0000;exitX=0.5;exitY=0;exitDx=0;exitDy=0;entryX=0.277;entryY=0.548;entryDx=0;entryDy=0;entryPerimeter=0;" parent="1" source="iygMJ3F_EwSeTFs6lWKo-18" target="iygMJ3F_EwSeTFs6lWKo-55" edge="1">
          <mxGeometry relative="1" as="geometry">
            <mxPoint x="1470" y="40" as="targetPoint" />
            <Array as="points">
              <mxPoint x="1470" y="80" />
              <mxPoint x="1560" y="80" />
            </Array>
            <mxPoint x="1602.2400000000002" y="220.29999999999995" as="sourcePoint" />
          </mxGeometry>
        </mxCell>
        <mxCell id="iygMJ3F_EwSeTFs6lWKo-22" value="No" style="edgeLabel;html=1;align=center;verticalAlign=middle;resizable=0;points=[];" parent="iygMJ3F_EwSeTFs6lWKo-20" vertex="1" connectable="0">
          <mxGeometry x="-0.707" y="3" relative="1" as="geometry">
            <mxPoint as="offset" />
          </mxGeometry>
        </mxCell>
        <mxCell id="iygMJ3F_EwSeTFs6lWKo-13" value="Searching food" style="swimlane;html=1;fontStyle=1;align=center;verticalAlign=middle;childLayout=stackLayout;horizontal=1;startSize=30;horizontalStack=0;resizeParent=0;resizeLast=1;container=0;fontColor=#000000;collapsible=0;rounded=1;arcSize=30;strokeColor=#ff0000;fillColor=#ffffc0;swimlaneFillColor=#ffffc0;dropTarget=0;" parent="1" vertex="1">
          <mxGeometry x="1070" y="430" width="160" height="60" as="geometry" />
        </mxCell>
        <mxCell id="iygMJ3F_EwSeTFs6lWKo-14" value="Energy--; Hunger++" style="text;html=1;strokeColor=none;fillColor=none;align=center;verticalAlign=middle;spacingLeft=4;spacingRight=4;whiteSpace=wrap;overflow=hidden;rotatable=0;fontColor=#000000;" parent="iygMJ3F_EwSeTFs6lWKo-13" vertex="1">
          <mxGeometry y="30" width="160" height="30" as="geometry" />
        </mxCell>
        <mxCell id="iygMJ3F_EwSeTFs6lWKo-15" value="Subtitle" style="text;html=1;strokeColor=none;fillColor=none;align=center;verticalAlign=middle;spacingLeft=4;spacingRight=4;whiteSpace=wrap;overflow=hidden;rotatable=0;fontColor=#000000;" parent="iygMJ3F_EwSeTFs6lWKo-13" vertex="1">
          <mxGeometry y="60" width="160" as="geometry" />
        </mxCell>
        <mxCell id="iygMJ3F_EwSeTFs6lWKo-23" value="" style="edgeStyle=orthogonalEdgeStyle;html=1;verticalAlign=bottom;endArrow=open;endSize=8;strokeColor=#ff0000;exitX=0;exitY=0.5;exitDx=0;exitDy=0;entryX=0.75;entryY=0;entryDx=0;entryDy=0;" parent="1" source="iygMJ3F_EwSeTFs6lWKo-18" target="iygMJ3F_EwSeTFs6lWKo-13" edge="1">
          <mxGeometry relative="1" as="geometry">
            <mxPoint x="1636.6399999999999" y="219.51999999999998" as="targetPoint" />
            <Array as="points">
              <mxPoint x="1190" y="235" />
            </Array>
            <mxPoint x="1520" y="150" as="sourcePoint" />
          </mxGeometry>
        </mxCell>
        <mxCell id="iygMJ3F_EwSeTFs6lWKo-24" value="Yes" style="edgeLabel;html=1;align=center;verticalAlign=middle;resizable=0;points=[];" parent="iygMJ3F_EwSeTFs6lWKo-23" vertex="1" connectable="0">
          <mxGeometry x="-0.707" y="3" relative="1" as="geometry">
            <mxPoint x="42.400000000000006" y="-3" as="offset" />
          </mxGeometry>
        </mxCell>
        <mxCell id="iygMJ3F_EwSeTFs6lWKo-28" value="" style="edgeStyle=orthogonalEdgeStyle;html=1;verticalAlign=bottom;endArrow=open;endSize=8;strokeColor=#ff0000;exitX=0.165;exitY=1;exitDx=0;exitDy=0;exitPerimeter=0;entryX=1;entryY=0;entryDx=0;entryDy=0;" parent="1" source="iygMJ3F_EwSeTFs6lWKo-10" target="iygMJ3F_EwSeTFs6lWKo-30" edge="1">
          <mxGeometry relative="1" as="geometry">
            <mxPoint x="1500" y="310" as="targetPoint" />
            <Array as="points">
              <mxPoint x="1602" y="270" />
              <mxPoint x="1602" y="300" />
              <mxPoint x="1500" y="300" />
            </Array>
            <mxPoint x="1602.2399999999998" y="220.29999999999995" as="sourcePoint" />
          </mxGeometry>
        </mxCell>
        <mxCell id="iygMJ3F_EwSeTFs6lWKo-29" value="followEntity" style="edgeLabel;html=1;align=center;verticalAlign=middle;resizable=0;points=[];fontStyle=1" parent="iygMJ3F_EwSeTFs6lWKo-28" vertex="1" connectable="0">
          <mxGeometry x="-0.115" relative="1" as="geometry">
            <mxPoint x="32.4" y="-10" as="offset" />
          </mxGeometry>
        </mxCell>
        <mxCell id="iygMJ3F_EwSeTFs6lWKo-30" value="Determine&lt;br&gt;Type of entity" style="rhombus;whiteSpace=wrap;html=1;fillColor=#ffffc0;strokeColor=#ff0000;" parent="1" vertex="1">
          <mxGeometry x="1410" y="300" width="120" height="80" as="geometry" />
        </mxCell>
        <mxCell id="iygMJ3F_EwSeTFs6lWKo-31" value="" style="edgeStyle=orthogonalEdgeStyle;html=1;verticalAlign=bottom;endArrow=open;endSize=8;strokeColor=#ff0000;exitX=0.5;exitY=0;exitDx=0;exitDy=0;" parent="1" source="iygMJ3F_EwSeTFs6lWKo-30" edge="1">
          <mxGeometry relative="1" as="geometry">
            <mxPoint x="1470" y="260" as="targetPoint" />
            <Array as="points">
              <mxPoint x="1470" y="280" />
              <mxPoint x="1470" y="280" />
            </Array>
            <mxPoint x="1480" y="219.99999999999994" as="sourcePoint" />
          </mxGeometry>
        </mxCell>
        <mxCell id="iygMJ3F_EwSeTFs6lWKo-32" value="Other" style="edgeLabel;html=1;align=center;verticalAlign=middle;resizable=0;points=[];" parent="iygMJ3F_EwSeTFs6lWKo-31" vertex="1" connectable="0">
          <mxGeometry x="-0.707" y="3" relative="1" as="geometry">
            <mxPoint x="3" y="-6.33" as="offset" />
          </mxGeometry>
        </mxCell>
        <mxCell id="iygMJ3F_EwSeTFs6lWKo-33" value="" style="edgeStyle=orthogonalEdgeStyle;html=1;verticalAlign=bottom;endArrow=open;endSize=8;strokeColor=#ff0000;entryX=0;entryY=0.5;entryDx=0;entryDy=0;exitX=1;exitY=0.5;exitDx=0;exitDy=0;" parent="1" source="iygMJ3F_EwSeTFs6lWKo-30" target="iygMJ3F_EwSeTFs6lWKo-25" edge="1">
          <mxGeometry relative="1" as="geometry">
            <mxPoint x="1710" y="330" as="targetPoint" />
            <Array as="points">
              <mxPoint x="1530" y="420" />
            </Array>
            <mxPoint x="1620" y="400" as="sourcePoint" />
          </mxGeometry>
        </mxCell>
        <mxCell id="iygMJ3F_EwSeTFs6lWKo-34" value="Creature that we attack" style="edgeLabel;html=1;align=center;verticalAlign=middle;resizable=0;points=[];" parent="iygMJ3F_EwSeTFs6lWKo-33" vertex="1" connectable="0">
          <mxGeometry x="-0.707" y="3" relative="1" as="geometry">
            <mxPoint x="-10.59" y="2.99" as="offset" />
          </mxGeometry>
        </mxCell>
        <mxCell id="iygMJ3F_EwSeTFs6lWKo-40" value="" style="edgeStyle=orthogonalEdgeStyle;html=1;verticalAlign=bottom;endArrow=open;endSize=8;strokeColor=#ff0000;exitX=0.75;exitY=1;exitDx=0;exitDy=0;entryX=0.75;entryY=0;entryDx=0;entryDy=0;" parent="1" source="iygMJ3F_EwSeTFs6lWKo-10" target="iygMJ3F_EwSeTFs6lWKo-35" edge="1">
          <mxGeometry relative="1" as="geometry">
            <mxPoint x="1710" y="580" as="targetPoint" />
            <Array as="points">
              <mxPoint x="1690" y="670" />
              <mxPoint x="1690" y="670" />
            </Array>
            <mxPoint x="1602.2399999999998" y="220.29999999999995" as="sourcePoint" />
          </mxGeometry>
        </mxCell>
        <mxCell id="iygMJ3F_EwSeTFs6lWKo-41" value="runFromEntity" style="edgeLabel;html=1;align=center;verticalAlign=middle;resizable=0;points=[];shadow=0;fontStyle=1" parent="iygMJ3F_EwSeTFs6lWKo-40" vertex="1" connectable="0">
          <mxGeometry x="-0.115" relative="1" as="geometry">
            <mxPoint y="-192.86" as="offset" />
          </mxGeometry>
        </mxCell>
        <mxCell id="iygMJ3F_EwSeTFs6lWKo-35" value="Afraid" style="swimlane;html=1;fontStyle=1;align=center;verticalAlign=middle;childLayout=stackLayout;horizontal=1;startSize=30;horizontalStack=0;resizeParent=0;resizeLast=1;container=0;fontColor=#000000;collapsible=0;rounded=1;arcSize=30;strokeColor=#ff0000;fillColor=#ffffc0;swimlaneFillColor=#ffffc0;dropTarget=0;" parent="1" vertex="1">
          <mxGeometry x="1570" y="750" width="160" height="60" as="geometry" />
        </mxCell>
        <mxCell id="iygMJ3F_EwSeTFs6lWKo-36" value="Energy -= 2; Hunger++" style="text;html=1;strokeColor=none;fillColor=none;align=center;verticalAlign=middle;spacingLeft=4;spacingRight=4;whiteSpace=wrap;overflow=hidden;rotatable=0;fontColor=#000000;" parent="iygMJ3F_EwSeTFs6lWKo-35" vertex="1">
          <mxGeometry y="30" width="160" height="30" as="geometry" />
        </mxCell>
        <mxCell id="iygMJ3F_EwSeTFs6lWKo-37" value="Subtitle" style="text;html=1;strokeColor=none;fillColor=none;align=center;verticalAlign=middle;spacingLeft=4;spacingRight=4;whiteSpace=wrap;overflow=hidden;rotatable=0;fontColor=#000000;" parent="iygMJ3F_EwSeTFs6lWKo-35" vertex="1">
          <mxGeometry y="60" width="160" as="geometry" />
        </mxCell>
        <mxCell id="iygMJ3F_EwSeTFs6lWKo-48" value="" style="edgeStyle=orthogonalEdgeStyle;html=1;verticalAlign=bottom;endArrow=open;endSize=8;strokeColor=#ff0000;exitX=0.75;exitY=1;exitDx=0;exitDy=0;entryX=0;entryY=0.25;entryDx=0;entryDy=0;" parent="1" source="iygMJ3F_EwSeTFs6lWKo-14" target="iygMJ3F_EwSeTFs6lWKo-35" edge="1">
          <mxGeometry relative="1" as="geometry">
            <mxPoint x="1220" y="1070" as="targetPoint" />
            <Array as="points">
              <mxPoint x="1190" y="765" />
            </Array>
            <mxPoint x="1220" y="590" as="sourcePoint" />
          </mxGeometry>
        </mxCell>
        <mxCell id="iygMJ3F_EwSeTFs6lWKo-49" value="runFromEntity" style="edgeLabel;html=1;align=center;verticalAlign=middle;resizable=0;points=[];shadow=0;fontStyle=1" parent="iygMJ3F_EwSeTFs6lWKo-48" vertex="1" connectable="0">
          <mxGeometry x="-0.115" relative="1" as="geometry">
            <mxPoint x="-14.47" y="-260" as="offset" />
          </mxGeometry>
        </mxCell>
        <mxCell id="iygMJ3F_EwSeTFs6lWKo-53" value="" style="edgeStyle=orthogonalEdgeStyle;html=1;verticalAlign=bottom;endArrow=open;endSize=8;strokeColor=#ff0000;entryX=0.5;entryY=1;entryDx=0;entryDy=0;" parent="1" target="iygMJ3F_EwSeTFs6lWKo-57" edge="1">
          <mxGeometry relative="1" as="geometry">
            <mxPoint x="1135" y="320" as="targetPoint" />
            <Array as="points">
              <mxPoint x="1090" y="429" />
            </Array>
            <mxPoint x="1090" y="429" as="sourcePoint" />
          </mxGeometry>
        </mxCell>
        <mxCell id="iygMJ3F_EwSeTFs6lWKo-54" value="followEntity" style="edgeLabel;html=1;align=center;verticalAlign=middle;resizable=0;points=[];shadow=0;fontStyle=1" parent="iygMJ3F_EwSeTFs6lWKo-53" vertex="1" connectable="0">
          <mxGeometry x="-0.115" relative="1" as="geometry">
            <mxPoint x="2.3100000000000005" y="32.66" as="offset" />
          </mxGeometry>
        </mxCell>
        <mxCell id="iygMJ3F_EwSeTFs6lWKo-55" value="" style="shape=line;html=1;strokeWidth=6;strokeColor=#ff0000;shadow=0;" parent="1" vertex="1">
          <mxGeometry x="1430" y="30" width="470" height="10" as="geometry" />
        </mxCell>
        <mxCell id="iygMJ3F_EwSeTFs6lWKo-56" value="" style="edgeStyle=orthogonalEdgeStyle;html=1;verticalAlign=bottom;endArrow=open;endSize=8;strokeColor=#ff0000;entryX=0;entryY=0;entryDx=0;entryDy=0;exitX=1;exitY=0.5;exitDx=0;exitDy=0;exitPerimeter=0;" parent="1" source="iygMJ3F_EwSeTFs6lWKo-55" target="iygMJ3F_EwSeTFs6lWKo-116" edge="1">
          <mxGeometry relative="1" as="geometry">
            <mxPoint x="1550" y="140" as="targetPoint" />
            <Array as="points">
              <mxPoint x="1800" y="35" />
              <mxPoint x="1800" y="120" />
              <mxPoint x="1803" y="120" />
            </Array>
          </mxGeometry>
        </mxCell>
        <mxCell id="iygMJ3F_EwSeTFs6lWKo-57" value="Determine&lt;br&gt;Type of entity" style="rhombus;whiteSpace=wrap;html=1;fillColor=#ffffc0;strokeColor=#ff0000;" parent="1" vertex="1">
          <mxGeometry x="1030" y="280" width="120" height="60" as="geometry" />
        </mxCell>
        <mxCell id="iygMJ3F_EwSeTFs6lWKo-58" value="" style="edgeStyle=orthogonalEdgeStyle;html=1;verticalAlign=bottom;endArrow=open;endSize=8;strokeColor=#ff0000;entryX=0.5;entryY=0;entryDx=0;entryDy=0;exitX=1;exitY=0.5;exitDx=0;exitDy=0;" parent="1" source="iygMJ3F_EwSeTFs6lWKo-57" target="iygMJ3F_EwSeTFs6lWKo-13" edge="1">
          <mxGeometry relative="1" as="geometry">
            <mxPoint x="1530" y="500" as="targetPoint" />
            <Array as="points">
              <mxPoint x="1150" y="420" />
              <mxPoint x="1150" y="420" />
            </Array>
            <mxPoint x="1030" y="400" as="sourcePoint" />
          </mxGeometry>
        </mxCell>
        <mxCell id="iygMJ3F_EwSeTFs6lWKo-59" value="Other" style="edgeLabel;html=1;align=center;verticalAlign=middle;resizable=0;points=[];" parent="iygMJ3F_EwSeTFs6lWKo-58" vertex="1" connectable="0">
          <mxGeometry x="-0.707" y="3" relative="1" as="geometry">
            <mxPoint x="-3" y="2" as="offset" />
          </mxGeometry>
        </mxCell>
        <mxCell id="iygMJ3F_EwSeTFs6lWKo-60" value="" style="edgeStyle=orthogonalEdgeStyle;html=1;verticalAlign=bottom;endArrow=open;endSize=8;strokeColor=#ff0000;exitX=0.5;exitY=0;exitDx=0;exitDy=0;entryX=0.5;entryY=1;entryDx=0;entryDy=0;" parent="1" source="iygMJ3F_EwSeTFs6lWKo-57" target="iygMJ3F_EwSeTFs6lWKo-62" edge="1">
          <mxGeometry relative="1" as="geometry">
            <mxPoint x="1090" y="180" as="targetPoint" />
            <Array as="points" />
            <mxPoint x="1160" y="240" as="sourcePoint" />
          </mxGeometry>
        </mxCell>
        <mxCell id="iygMJ3F_EwSeTFs6lWKo-61" value="Food, that we are close to&lt;br&gt;and can eat it" style="edgeLabel;html=1;align=center;verticalAlign=middle;resizable=0;points=[];" parent="iygMJ3F_EwSeTFs6lWKo-60" vertex="1" connectable="0">
          <mxGeometry x="-0.707" y="3" relative="1" as="geometry">
            <mxPoint x="3" y="-4" as="offset" />
          </mxGeometry>
        </mxCell>
        <mxCell id="iygMJ3F_EwSeTFs6lWKo-62" value="Eat food. Remove it from world. Hunger-=food.saturation" style="rounded=1;whiteSpace=wrap;html=1;arcSize=40;fontColor=#000000;fillColor=#ffffc0;strokeColor=#ff0000;shadow=0;" parent="1" vertex="1">
          <mxGeometry x="1000" y="180" width="180" height="40" as="geometry" />
        </mxCell>
        <mxCell id="iygMJ3F_EwSeTFs6lWKo-63" value="" style="edgeStyle=orthogonalEdgeStyle;html=1;verticalAlign=bottom;endArrow=open;endSize=8;strokeColor=#ff0000;" parent="1" source="iygMJ3F_EwSeTFs6lWKo-62" edge="1">
          <mxGeometry relative="1" as="geometry">
            <mxPoint x="1450" y="35" as="targetPoint" />
            <Array as="points">
              <mxPoint x="1450" y="200" />
              <mxPoint x="1450" y="35" />
            </Array>
          </mxGeometry>
        </mxCell>
        <mxCell id="iygMJ3F_EwSeTFs6lWKo-64" value="" style="edgeStyle=orthogonalEdgeStyle;html=1;verticalAlign=bottom;endArrow=open;endSize=8;strokeColor=#ff0000;entryX=0.5;entryY=0;entryDx=0;entryDy=0;" parent="1" target="iygMJ3F_EwSeTFs6lWKo-66" edge="1">
          <mxGeometry relative="1" as="geometry">
            <mxPoint x="1655" y="880" as="targetPoint" />
            <Array as="points">
              <mxPoint x="1580" y="810" />
            </Array>
            <mxPoint x="1590" y="810" as="sourcePoint" />
          </mxGeometry>
        </mxCell>
        <mxCell id="iygMJ3F_EwSeTFs6lWKo-65" value="runFromEntity" style="edgeLabel;html=1;align=center;verticalAlign=middle;resizable=0;points=[];shadow=0;fontStyle=1" parent="iygMJ3F_EwSeTFs6lWKo-64" vertex="1" connectable="0">
          <mxGeometry x="-0.115" relative="1" as="geometry">
            <mxPoint x="4.440892098500626e-16" y="16.67" as="offset" />
          </mxGeometry>
        </mxCell>
        <mxCell id="iygMJ3F_EwSeTFs6lWKo-66" value="Determine&lt;br&gt;Type of entity" style="rhombus;whiteSpace=wrap;html=1;fillColor=#ffffc0;strokeColor=#ff0000;" parent="1" vertex="1">
          <mxGeometry x="1520" y="920" width="120" height="60" as="geometry" />
        </mxCell>
        <mxCell id="iygMJ3F_EwSeTFs6lWKo-67" value="" style="edgeStyle=orthogonalEdgeStyle;html=1;verticalAlign=bottom;endArrow=open;endSize=8;strokeColor=#ff0000;exitX=1;exitY=0.5;exitDx=0;exitDy=0;" parent="1" source="iygMJ3F_EwSeTFs6lWKo-66" target="iygMJ3F_EwSeTFs6lWKo-36" edge="1">
          <mxGeometry relative="1" as="geometry">
            <mxPoint x="1670" y="990" as="targetPoint" />
            <Array as="points">
              <mxPoint x="1640" y="890" />
              <mxPoint x="1640" y="890" />
            </Array>
            <mxPoint x="1550" y="960" as="sourcePoint" />
          </mxGeometry>
        </mxCell>
        <mxCell id="iygMJ3F_EwSeTFs6lWKo-68" value="Creature, that&lt;br&gt;we are afraid of" style="edgeLabel;html=1;align=center;verticalAlign=middle;resizable=0;points=[];" parent="iygMJ3F_EwSeTFs6lWKo-67" vertex="1" connectable="0">
          <mxGeometry x="-0.707" y="3" relative="1" as="geometry">
            <mxPoint x="3" y="-19.31" as="offset" />
          </mxGeometry>
        </mxCell>
        <mxCell id="iygMJ3F_EwSeTFs6lWKo-70" value="" style="edgeStyle=orthogonalEdgeStyle;html=1;verticalAlign=bottom;endArrow=open;endSize=8;strokeColor=#ff0000;exitX=0;exitY=0.5;exitDx=0;exitDy=0;" parent="1" source="iygMJ3F_EwSeTFs6lWKo-98" edge="1">
          <mxGeometry relative="1" as="geometry">
            <mxPoint x="1473" y="35" as="targetPoint" />
            <Array as="points">
              <mxPoint x="950" y="885" />
              <mxPoint x="950" y="-70" />
              <mxPoint x="1473" y="-70" />
            </Array>
            <mxPoint x="1380" y="970" as="sourcePoint" />
          </mxGeometry>
        </mxCell>
        <mxCell id="iygMJ3F_EwSeTFs6lWKo-71" value="No" style="edgeLabel;html=1;align=center;verticalAlign=middle;resizable=0;points=[];" parent="iygMJ3F_EwSeTFs6lWKo-70" vertex="1" connectable="0">
          <mxGeometry x="-0.707" y="3" relative="1" as="geometry">
            <mxPoint x="265.00000000000006" y="-3" as="offset" />
          </mxGeometry>
        </mxCell>
        <mxCell id="iygMJ3F_EwSeTFs6lWKo-83" value="" style="shape=line;html=1;strokeWidth=6;strokeColor=#ff0000;shadow=0;" parent="1" vertex="1">
          <mxGeometry x="1340" y="505" width="220" height="15" as="geometry" />
        </mxCell>
        <mxCell id="iygMJ3F_EwSeTFs6lWKo-84" value="" style="edgeStyle=orthogonalEdgeStyle;html=1;verticalAlign=bottom;endArrow=open;endSize=8;strokeColor=#ff0000;entryX=0;entryY=0;entryDx=0;entryDy=0;exitX=1;exitY=0.5;exitDx=0;exitDy=0;exitPerimeter=0;" parent="1" source="iygMJ3F_EwSeTFs6lWKo-83" target="iygMJ3F_EwSeTFs6lWKo-78" edge="1">
          <mxGeometry relative="1" as="geometry">
            <mxPoint x="1460" y="585" as="targetPoint" />
            <Array as="points">
              <mxPoint x="1560" y="580" />
            </Array>
          </mxGeometry>
        </mxCell>
        <mxCell id="iygMJ3F_EwSeTFs6lWKo-86" value="&lt;b&gt;followEntity&lt;/b&gt;" style="edgeLabel;html=1;align=center;verticalAlign=middle;resizable=0;points=[];" parent="1" vertex="1" connectable="0">
          <mxGeometry x="1869.9951728123058" y="659.996548078018" as="geometry" />
        </mxCell>
        <mxCell id="iygMJ3F_EwSeTFs6lWKo-87" value="Energy =&amp;gt; 500" style="rhombus;whiteSpace=wrap;html=1;fillColor=#ffffc0;strokeColor=#ff0000;shadow=0;" parent="1" vertex="1">
          <mxGeometry x="2000" y="610" width="90" height="60" as="geometry" />
        </mxCell>
        <mxCell id="iygMJ3F_EwSeTFs6lWKo-94" value="" style="edgeStyle=orthogonalEdgeStyle;html=1;verticalAlign=bottom;endArrow=open;endSize=8;strokeColor=#ff0000;exitX=0.5;exitY=0;exitDx=0;exitDy=0;entryX=1;entryY=0;entryDx=0;entryDy=0;" parent="1" source="iygMJ3F_EwSeTFs6lWKo-87" target="iygMJ3F_EwSeTFs6lWKo-78" edge="1">
          <mxGeometry relative="1" as="geometry">
            <mxPoint x="2000.0000000000005" y="447.1899999999999" as="targetPoint" />
            <Array as="points">
              <mxPoint x="2045" y="580" />
            </Array>
            <mxPoint x="1973.12" y="622.81" as="sourcePoint" />
          </mxGeometry>
        </mxCell>
        <mxCell id="iygMJ3F_EwSeTFs6lWKo-95" value="No" style="edgeLabel;html=1;align=center;verticalAlign=middle;resizable=0;points=[];" parent="iygMJ3F_EwSeTFs6lWKo-94" vertex="1" connectable="0">
          <mxGeometry x="-0.707" y="3" relative="1" as="geometry">
            <mxPoint y="8.86" as="offset" />
          </mxGeometry>
        </mxCell>
        <mxCell id="iygMJ3F_EwSeTFs6lWKo-96" value="" style="edgeStyle=orthogonalEdgeStyle;html=1;verticalAlign=bottom;endArrow=open;endSize=8;strokeColor=#ff0000;exitX=1;exitY=0.5;exitDx=0;exitDy=0;" parent="1" source="iygMJ3F_EwSeTFs6lWKo-87" edge="1">
          <mxGeometry relative="1" as="geometry">
            <mxPoint x="1890" y="40" as="targetPoint" />
            <Array as="points">
              <mxPoint x="2280" y="640" />
              <mxPoint x="2280" y="80" />
              <mxPoint x="1890" y="80" />
            </Array>
            <mxPoint x="2215" y="620" as="sourcePoint" />
          </mxGeometry>
        </mxCell>
        <mxCell id="iygMJ3F_EwSeTFs6lWKo-97" value="Yes" style="edgeLabel;html=1;align=center;verticalAlign=middle;resizable=0;points=[];" parent="iygMJ3F_EwSeTFs6lWKo-96" vertex="1" connectable="0">
          <mxGeometry x="-0.707" y="3" relative="1" as="geometry">
            <mxPoint x="-152.5" y="3" as="offset" />
          </mxGeometry>
        </mxCell>
        <mxCell id="iygMJ3F_EwSeTFs6lWKo-98" value="Energy &amp;lt;= 2" style="rhombus;whiteSpace=wrap;html=1;fillColor=#ffffc0;strokeColor=#ff0000;shadow=0;" parent="1" vertex="1">
          <mxGeometry x="1330" y="840" width="90" height="90" as="geometry" />
        </mxCell>
        <mxCell id="iygMJ3F_EwSeTFs6lWKo-101" value="" style="edgeStyle=orthogonalEdgeStyle;html=1;verticalAlign=bottom;endArrow=open;endSize=8;strokeColor=#ff0000;exitX=0;exitY=0.5;exitDx=0;exitDy=0;entryX=1;entryY=0.5;entryDx=0;entryDy=0;" parent="1" source="iygMJ3F_EwSeTFs6lWKo-66" target="iygMJ3F_EwSeTFs6lWKo-98" edge="1">
          <mxGeometry relative="1" as="geometry">
            <mxPoint x="1490" y="820" as="targetPoint" />
            <Array as="points">
              <mxPoint x="1490" y="950" />
              <mxPoint x="1490" y="870" />
            </Array>
            <mxPoint x="1490" y="960" as="sourcePoint" />
          </mxGeometry>
        </mxCell>
        <mxCell id="iygMJ3F_EwSeTFs6lWKo-102" value="Other" style="edgeLabel;html=1;align=center;verticalAlign=middle;resizable=0;points=[];" parent="iygMJ3F_EwSeTFs6lWKo-101" vertex="1" connectable="0">
          <mxGeometry x="-0.707" y="3" relative="1" as="geometry">
            <mxPoint x="3" y="-3.0299999999999976" as="offset" />
          </mxGeometry>
        </mxCell>
        <mxCell id="iygMJ3F_EwSeTFs6lWKo-103" value="" style="edgeStyle=orthogonalEdgeStyle;html=1;verticalAlign=bottom;endArrow=open;endSize=8;strokeColor=#ff0000;entryX=0.161;entryY=0.719;entryDx=0;entryDy=0;exitX=0.5;exitY=0;exitDx=0;exitDy=0;entryPerimeter=0;" parent="1" source="iygMJ3F_EwSeTFs6lWKo-98" target="iygMJ3F_EwSeTFs6lWKo-83" edge="1">
          <mxGeometry relative="1" as="geometry">
            <mxPoint x="1940" y="590" as="targetPoint" />
            <mxPoint x="1570" y="522.5" as="sourcePoint" />
            <Array as="points" />
          </mxGeometry>
        </mxCell>
        <mxCell id="iygMJ3F_EwSeTFs6lWKo-104" value="Yes" style="edgeLabel;html=1;align=center;verticalAlign=middle;resizable=0;points=[];" parent="iygMJ3F_EwSeTFs6lWKo-103" vertex="1" connectable="0">
          <mxGeometry x="-0.9015" y="2" relative="1" as="geometry">
            <mxPoint y="1" as="offset" />
          </mxGeometry>
        </mxCell>
        <mxCell id="iygMJ3F_EwSeTFs6lWKo-106" value="" style="edgeStyle=orthogonalEdgeStyle;html=1;verticalAlign=bottom;endArrow=open;endSize=8;strokeColor=#ff0000;exitX=0;exitY=0.5;exitDx=0;exitDy=0;entryX=1;entryY=0;entryDx=0;entryDy=0;" parent="1" source="iygMJ3F_EwSeTFs6lWKo-108" target="iygMJ3F_EwSeTFs6lWKo-14" edge="1">
          <mxGeometry relative="1" as="geometry">
            <mxPoint x="1442.94" y="-405" as="targetPoint" />
            <Array as="points">
              <mxPoint x="1300" y="460" />
            </Array>
            <mxPoint x="1349.94" y="530" as="sourcePoint" />
          </mxGeometry>
        </mxCell>
        <mxCell id="iygMJ3F_EwSeTFs6lWKo-107" value="No" style="edgeLabel;html=1;align=center;verticalAlign=middle;resizable=0;points=[];" parent="iygMJ3F_EwSeTFs6lWKo-106" vertex="1" connectable="0">
          <mxGeometry x="-0.707" y="3" relative="1" as="geometry">
            <mxPoint x="-2.989999999999954" y="5.200000000000001" as="offset" />
          </mxGeometry>
        </mxCell>
        <mxCell id="iygMJ3F_EwSeTFs6lWKo-108" value="Energy &amp;lt;= 2" style="rhombus;whiteSpace=wrap;html=1;fillColor=#ffffc0;strokeColor=#ff0000;shadow=0;" parent="1" vertex="1">
          <mxGeometry x="1299.94" y="400" width="90" height="60" as="geometry" />
        </mxCell>
        <mxCell id="iygMJ3F_EwSeTFs6lWKo-109" value="" style="edgeStyle=orthogonalEdgeStyle;html=1;verticalAlign=bottom;endArrow=open;endSize=8;strokeColor=#ff0000;exitX=0.5;exitY=1;exitDx=0;exitDy=0;" parent="1" source="iygMJ3F_EwSeTFs6lWKo-108" edge="1">
          <mxGeometry relative="1" as="geometry">
            <mxPoint x="1344" y="513" as="targetPoint" />
            <mxPoint x="1539.94" y="82.5" as="sourcePoint" />
            <Array as="points">
              <mxPoint x="1345" y="483" />
              <mxPoint x="1344" y="483" />
            </Array>
          </mxGeometry>
        </mxCell>
        <mxCell id="iygMJ3F_EwSeTFs6lWKo-110" value="Yes" style="edgeLabel;html=1;align=center;verticalAlign=middle;resizable=0;points=[];" parent="iygMJ3F_EwSeTFs6lWKo-109" vertex="1" connectable="0">
          <mxGeometry x="-0.9015" y="2" relative="1" as="geometry">
            <mxPoint x="-2" y="12.14" as="offset" />
          </mxGeometry>
        </mxCell>
        <mxCell id="iygMJ3F_EwSeTFs6lWKo-46" value="" style="edgeStyle=orthogonalEdgeStyle;html=1;verticalAlign=bottom;endArrow=open;endSize=8;strokeColor=#ff0000;exitX=1;exitY=0.25;exitDx=0;exitDy=0;entryX=0;entryY=0;entryDx=0;entryDy=0;" parent="1" source="iygMJ3F_EwSeTFs6lWKo-13" target="iygMJ3F_EwSeTFs6lWKo-108" edge="1">
          <mxGeometry relative="1" as="geometry">
            <mxPoint x="920" y="490" as="targetPoint" />
            <Array as="points">
              <mxPoint x="1230" y="370" />
              <mxPoint x="1322" y="370" />
            </Array>
            <mxPoint x="992.2399999999998" y="465.29999999999995" as="sourcePoint" />
          </mxGeometry>
        </mxCell>
        <mxCell id="iygMJ3F_EwSeTFs6lWKo-47" value="stayIdle" style="edgeLabel;html=1;align=center;verticalAlign=middle;resizable=0;points=[];shadow=0;fontStyle=1" parent="iygMJ3F_EwSeTFs6lWKo-46" vertex="1" connectable="0">
          <mxGeometry x="-0.115" relative="1" as="geometry">
            <mxPoint x="-4.289999999999999" y="-0.03000000000000025" as="offset" />
          </mxGeometry>
        </mxCell>
        <mxCell id="iygMJ3F_EwSeTFs6lWKo-111" value="Energy &amp;lt;= 2" style="rhombus;whiteSpace=wrap;html=1;fillColor=#ffffc0;strokeColor=#ff0000;shadow=0;" parent="1" vertex="1">
          <mxGeometry x="1299.94" y="400" width="90" height="60" as="geometry" />
        </mxCell>
        <mxCell id="iygMJ3F_EwSeTFs6lWKo-112" value="" style="edgeStyle=orthogonalEdgeStyle;html=1;verticalAlign=bottom;endArrow=open;endSize=8;strokeColor=#ff0000;exitX=0;exitY=0.5;exitDx=0;exitDy=0;entryX=1;entryY=0;entryDx=0;entryDy=0;" parent="1" source="iygMJ3F_EwSeTFs6lWKo-111" edge="1">
          <mxGeometry relative="1" as="geometry">
            <mxPoint x="1230" y="460" as="targetPoint" />
            <Array as="points">
              <mxPoint x="1300" y="460" />
            </Array>
            <mxPoint x="1349.94" y="530" as="sourcePoint" />
          </mxGeometry>
        </mxCell>
        <mxCell id="iygMJ3F_EwSeTFs6lWKo-113" value="No" style="edgeLabel;html=1;align=center;verticalAlign=middle;resizable=0;points=[];" parent="iygMJ3F_EwSeTFs6lWKo-112" vertex="1" connectable="0">
          <mxGeometry x="-0.707" y="3" relative="1" as="geometry">
            <mxPoint x="-2.989999999999954" y="5.200000000000001" as="offset" />
          </mxGeometry>
        </mxCell>
        <mxCell id="iygMJ3F_EwSeTFs6lWKo-114" value="" style="edgeStyle=orthogonalEdgeStyle;html=1;verticalAlign=bottom;endArrow=open;endSize=8;strokeColor=#ff0000;exitX=1;exitY=0.5;exitDx=0;exitDy=0;entryX=0.75;entryY=0;entryDx=0;entryDy=0;" parent="1" source="iygMJ3F_EwSeTFs6lWKo-116" target="iygMJ3F_EwSeTFs6lWKo-77" edge="1">
          <mxGeometry relative="1" as="geometry">
            <mxPoint x="1924" y="236.5" as="targetPoint" />
            <mxPoint x="1924.94" y="183.5" as="sourcePoint" />
            <Array as="points">
              <mxPoint x="2140" y="190" />
              <mxPoint x="2140" y="530" />
              <mxPoint x="1890" y="530" />
            </Array>
          </mxGeometry>
        </mxCell>
        <mxCell id="iygMJ3F_EwSeTFs6lWKo-115" value="Yes" style="edgeLabel;html=1;align=center;verticalAlign=middle;resizable=0;points=[];" parent="iygMJ3F_EwSeTFs6lWKo-114" vertex="1" connectable="0">
          <mxGeometry x="-0.9015" y="2" relative="1" as="geometry">
            <mxPoint x="-25" y="2" as="offset" />
          </mxGeometry>
        </mxCell>
        <mxCell id="iygMJ3F_EwSeTFs6lWKo-116" value="Energy &amp;lt;= 2&lt;br&gt;or hunger &amp;gt;=500" style="rhombus;whiteSpace=wrap;html=1;fillColor=#ffffc0;strokeColor=#ff0000;shadow=0;" parent="1" vertex="1">
          <mxGeometry x="1740" y="140" width="130" height="80" as="geometry" />
        </mxCell>
        <mxCell id="iygMJ3F_EwSeTFs6lWKo-117" value="" style="edgeStyle=orthogonalEdgeStyle;html=1;verticalAlign=bottom;endArrow=open;endSize=8;strokeColor=#ff0000;exitX=0;exitY=0.5;exitDx=0;exitDy=0;entryX=0;entryY=0.25;entryDx=0;entryDy=0;" parent="1" source="iygMJ3F_EwSeTFs6lWKo-116" target="iygMJ3F_EwSeTFs6lWKo-25" edge="1">
          <mxGeometry relative="1" as="geometry">
            <mxPoint x="1820" y="380" as="targetPoint" />
            <Array as="points">
              <mxPoint x="1740" y="190" />
              <mxPoint x="1750" y="190" />
              <mxPoint x="1750" y="405" />
            </Array>
            <mxPoint x="1929.94" y="253.5" as="sourcePoint" />
          </mxGeometry>
        </mxCell>
        <mxCell id="iygMJ3F_EwSeTFs6lWKo-118" value="No" style="edgeLabel;html=1;align=center;verticalAlign=middle;resizable=0;points=[];" parent="iygMJ3F_EwSeTFs6lWKo-117" vertex="1" connectable="0">
          <mxGeometry x="-0.707" y="3" relative="1" as="geometry">
            <mxPoint x="-2.989999999999954" y="5.200000000000001" as="offset" />
          </mxGeometry>
        </mxCell>
        <mxCell id="iygMJ3F_EwSeTFs6lWKo-72" value="" style="edgeStyle=orthogonalEdgeStyle;html=1;verticalAlign=bottom;endArrow=open;endSize=8;strokeColor=#ff0000;entryX=1;entryY=0;entryDx=0;entryDy=0;exitX=0;exitY=0.25;exitDx=0;exitDy=0;" parent="1" source="iygMJ3F_EwSeTFs6lWKo-36" target="iygMJ3F_EwSeTFs6lWKo-98" edge="1">
          <mxGeometry relative="1" as="geometry">
            <mxPoint x="1725" y="811" as="targetPoint" />
            <Array as="points">
              <mxPoint x="1500" y="788" />
              <mxPoint x="1398" y="788" />
            </Array>
            <mxPoint x="1663" y="811" as="sourcePoint" />
          </mxGeometry>
        </mxCell>
        <mxCell id="iygMJ3F_EwSeTFs6lWKo-73" value="stayIdle" style="edgeLabel;html=1;align=center;verticalAlign=middle;resizable=0;points=[];shadow=0;fontStyle=1" parent="iygMJ3F_EwSeTFs6lWKo-72" vertex="1" connectable="0">
          <mxGeometry x="-0.115" relative="1" as="geometry">
            <mxPoint x="65.83" y="2.33" as="offset" />
          </mxGeometry>
        </mxCell>
        <mxCell id="iygMJ3F_EwSeTFs6lWKo-119" value="&lt;b&gt;followEntity&lt;/b&gt;" style="edgeLabel;html=1;align=center;verticalAlign=middle;resizable=0;points=[];" parent="iygMJ3F_EwSeTFs6lWKo-72" vertex="1" connectable="0">
          <mxGeometry x="0.2444" y="2" relative="1" as="geometry">
            <mxPoint x="39.16" as="offset" />
          </mxGeometry>
        </mxCell>
        <mxCell id="iygMJ3F_EwSeTFs6lWKo-120" value="&lt;font style=&quot;font-size: 40px&quot;&gt;If hunger &amp;gt;= 1000 or energy &amp;lt;= 0 then decrease HP&lt;br&gt;HP is irrelevant for states&lt;br&gt;&lt;/font&gt;" style="text;html=1;align=center;verticalAlign=middle;resizable=0;points=[];autosize=1;" parent="1" vertex="1">
          <mxGeometry x="900" y="-200" width="930" height="50" as="geometry" />
        </mxCell>
        <mxCell id="iygMJ3F_EwSeTFs6lWKo-77" value="Sleeping" style="swimlane;html=1;fontStyle=1;align=center;verticalAlign=middle;childLayout=stackLayout;horizontal=1;startSize=30;horizontalStack=0;resizeParent=0;resizeLast=1;container=0;fontColor=#000000;collapsible=0;rounded=1;arcSize=30;strokeColor=#ff0000;fillColor=#ffffc0;swimlaneFillColor=#ffffc0;dropTarget=0;" parent="1" vertex="1">
          <mxGeometry x="1770" y="550" width="160" height="60" as="geometry" />
        </mxCell>
        <mxCell id="iygMJ3F_EwSeTFs6lWKo-78" value="Energy += 2" style="text;html=1;strokeColor=none;fillColor=none;align=center;verticalAlign=middle;spacingLeft=4;spacingRight=4;whiteSpace=wrap;overflow=hidden;rotatable=0;fontColor=#000000;" parent="iygMJ3F_EwSeTFs6lWKo-77" vertex="1">
          <mxGeometry y="30" width="160" height="30" as="geometry" />
        </mxCell>
        <mxCell id="iygMJ3F_EwSeTFs6lWKo-79" value="Subtitle" style="text;html=1;strokeColor=none;fillColor=none;align=center;verticalAlign=middle;spacingLeft=4;spacingRight=4;whiteSpace=wrap;overflow=hidden;rotatable=0;fontColor=#000000;" parent="iygMJ3F_EwSeTFs6lWKo-77" vertex="1">
          <mxGeometry y="60" width="160" as="geometry" />
        </mxCell>
        <mxCell id="iygMJ3F_EwSeTFs6lWKo-80" value="" style="edgeStyle=orthogonalEdgeStyle;html=1;verticalAlign=bottom;endArrow=open;endSize=8;strokeColor=#ff0000;entryX=0;entryY=0.5;entryDx=0;entryDy=0;" parent="iygMJ3F_EwSeTFs6lWKo-77" target="iygMJ3F_EwSeTFs6lWKo-87" edge="1">
          <mxGeometry relative="1" as="geometry">
            <mxPoint x="210" y="180" as="targetPoint" />
            <Array as="points">
              <mxPoint x="93" y="120" />
              <mxPoint x="200" y="120" />
              <mxPoint x="200" y="90" />
            </Array>
            <mxPoint x="93" y="61" as="sourcePoint" />
          </mxGeometry>
        </mxCell>
        <mxCell id="iygMJ3F_EwSeTFs6lWKo-82" value="&lt;b&gt;runFromEntity&lt;/b&gt;" style="edgeLabel;html=1;align=center;verticalAlign=middle;resizable=0;points=[];" parent="iygMJ3F_EwSeTFs6lWKo-80" vertex="1" connectable="0">
          <mxGeometry x="-0.348" relative="1" as="geometry">
            <mxPoint x="-7.71" y="-30.03000000000001" as="offset" />
          </mxGeometry>
        </mxCell>
        <mxCell id="iygMJ3F_EwSeTFs6lWKo-81" value="stayIdle" style="edgeLabel;html=1;align=center;verticalAlign=middle;resizable=0;points=[];shadow=0;fontStyle=1" parent="iygMJ3F_EwSeTFs6lWKo-80" vertex="1" connectable="0">
          <mxGeometry x="-0.115" relative="1" as="geometry">
            <mxPoint x="-44" y="-50.03" as="offset" />
          </mxGeometry>
        </mxCell>
        <mxCell id="iygMJ3F_EwSeTFs6lWKo-123" value="" style="edgeStyle=orthogonalEdgeStyle;html=1;verticalAlign=bottom;endArrow=open;endSize=8;strokeColor=#ff0000;entryX=0;entryY=1;entryDx=0;entryDy=0;exitX=0.342;exitY=-0.004;exitDx=0;exitDy=0;exitPerimeter=0;" parent="1" source="iygMJ3F_EwSeTFs6lWKo-25" target="iygMJ3F_EwSeTFs6lWKo-125" edge="1">
          <mxGeometry relative="1" as="geometry">
            <mxPoint x="1925" y="430" as="targetPoint" />
            <Array as="points">
              <mxPoint x="1980" y="390" />
            </Array>
            <mxPoint x="1860" y="360" as="sourcePoint" />
          </mxGeometry>
        </mxCell>
        <mxCell id="iygMJ3F_EwSeTFs6lWKo-124" value="followEntity" style="edgeLabel;html=1;align=center;verticalAlign=middle;resizable=0;points=[];shadow=0;fontStyle=1" parent="iygMJ3F_EwSeTFs6lWKo-123" vertex="1" connectable="0">
          <mxGeometry x="-0.115" relative="1" as="geometry">
            <mxPoint x="4.440892098500626e-16" y="16.67" as="offset" />
          </mxGeometry>
        </mxCell>
        <mxCell id="iygMJ3F_EwSeTFs6lWKo-138" value="&lt;b&gt;runFromEntity&lt;/b&gt;" style="edgeLabel;html=1;align=center;verticalAlign=middle;resizable=0;points=[];" parent="iygMJ3F_EwSeTFs6lWKo-123" vertex="1" connectable="0">
          <mxGeometry x="0.2631" y="2" relative="1" as="geometry">
            <mxPoint y="8.34" as="offset" />
          </mxGeometry>
        </mxCell>
        <mxCell id="iygMJ3F_EwSeTFs6lWKo-125" value="Determine&lt;br&gt;Type of entity" style="rhombus;whiteSpace=wrap;html=1;fillColor=#ffffc0;strokeColor=#ff0000;" parent="1" vertex="1">
          <mxGeometry x="1950" y="250" width="120" height="60" as="geometry" />
        </mxCell>
        <mxCell id="iygMJ3F_EwSeTFs6lWKo-126" value="" style="edgeStyle=orthogonalEdgeStyle;html=1;verticalAlign=bottom;endArrow=open;endSize=8;strokeColor=#ff0000;exitX=1;exitY=0.5;exitDx=0;exitDy=0;entryX=0.75;entryY=0;entryDx=0;entryDy=0;" parent="1" source="iygMJ3F_EwSeTFs6lWKo-125" target="iygMJ3F_EwSeTFs6lWKo-25" edge="1">
          <mxGeometry relative="1" as="geometry">
            <mxPoint x="1910.0588235294117" y="360" as="targetPoint" />
            <Array as="points">
              <mxPoint x="2070" y="330" />
              <mxPoint x="2050" y="330" />
            </Array>
            <mxPoint x="1820" y="510" as="sourcePoint" />
          </mxGeometry>
        </mxCell>
        <mxCell id="iygMJ3F_EwSeTFs6lWKo-127" value="Creature that&lt;br&gt;we attack" style="edgeLabel;html=1;align=center;verticalAlign=middle;resizable=0;points=[];" parent="iygMJ3F_EwSeTFs6lWKo-126" vertex="1" connectable="0">
          <mxGeometry x="-0.707" y="3" relative="1" as="geometry">
            <mxPoint x="-3" y="31.000000000000004" as="offset" />
          </mxGeometry>
        </mxCell>
        <mxCell id="iygMJ3F_EwSeTFs6lWKo-129" value="" style="edgeStyle=orthogonalEdgeStyle;html=1;verticalAlign=bottom;endArrow=open;endSize=8;strokeColor=#ff0000;exitX=0;exitY=0.5;exitDx=0;exitDy=0;entryX=1;entryY=1;entryDx=0;entryDy=0;" parent="1" source="iygMJ3F_EwSeTFs6lWKo-125" target="iygMJ3F_EwSeTFs6lWKo-116" edge="1">
          <mxGeometry relative="1" as="geometry">
            <mxPoint x="1840" y="325" as="targetPoint" />
            <Array as="points">
              <mxPoint x="1847" y="280" />
            </Array>
            <mxPoint x="1760" y="510" as="sourcePoint" />
          </mxGeometry>
        </mxCell>
        <mxCell id="iygMJ3F_EwSeTFs6lWKo-130" value="Other" style="edgeLabel;html=1;align=center;verticalAlign=middle;resizable=0;points=[];" parent="iygMJ3F_EwSeTFs6lWKo-129" vertex="1" connectable="0">
          <mxGeometry x="-0.707" y="3" relative="1" as="geometry">
            <mxPoint x="3" y="-3.0299999999999976" as="offset" />
          </mxGeometry>
        </mxCell>
        <mxCell id="iygMJ3F_EwSeTFs6lWKo-25" value="Aggressive" style="swimlane;html=1;fontStyle=1;align=center;verticalAlign=middle;childLayout=stackLayout;horizontal=1;startSize=30;horizontalStack=0;resizeParent=0;resizeLast=1;container=0;fontColor=#000000;collapsible=0;rounded=1;arcSize=30;strokeColor=#ff0000;fillColor=#ffffc0;swimlaneFillColor=#ffffc0;dropTarget=0;" parent="1" vertex="1">
          <mxGeometry x="1930" y="390" width="160" height="60" as="geometry" />
        </mxCell>
        <mxCell id="iygMJ3F_EwSeTFs6lWKo-26" value="Energy--; Hunger +=2" style="text;html=1;strokeColor=none;fillColor=none;align=center;verticalAlign=middle;spacingLeft=4;spacingRight=4;whiteSpace=wrap;overflow=hidden;rotatable=0;fontColor=#000000;" parent="iygMJ3F_EwSeTFs6lWKo-25" vertex="1">
          <mxGeometry y="30" width="160" height="30" as="geometry" />
        </mxCell>
        <mxCell id="iygMJ3F_EwSeTFs6lWKo-27" value="Subtitle" style="text;html=1;strokeColor=none;fillColor=none;align=center;verticalAlign=middle;spacingLeft=4;spacingRight=4;whiteSpace=wrap;overflow=hidden;rotatable=0;fontColor=#000000;" parent="iygMJ3F_EwSeTFs6lWKo-25" vertex="1">
          <mxGeometry y="60" width="160" as="geometry" />
        </mxCell>
        <mxCell id="iygMJ3F_EwSeTFs6lWKo-131" value="" style="edgeStyle=orthogonalEdgeStyle;html=1;verticalAlign=bottom;endArrow=open;endSize=8;strokeColor=#ff0000;exitX=0.017;exitY=0.173;exitDx=0;exitDy=0;exitPerimeter=0;entryX=1;entryY=1;entryDx=0;entryDy=0;" parent="1" source="iygMJ3F_EwSeTFs6lWKo-25" edge="1" target="iygMJ3F_EwSeTFs6lWKo-116">
          <mxGeometry relative="1" as="geometry">
            <mxPoint x="1848" y="205" as="targetPoint" />
            <Array as="points">
              <mxPoint x="1933" y="340" />
              <mxPoint x="1848" y="340" />
              <mxPoint x="1848" y="200" />
            </Array>
            <mxPoint x="1904.7199999999998" y="399.9400000000002" as="sourcePoint" />
          </mxGeometry>
        </mxCell>
        <mxCell id="iygMJ3F_EwSeTFs6lWKo-132" value="stayIdle" style="edgeLabel;html=1;align=center;verticalAlign=middle;resizable=0;points=[];shadow=0;fontStyle=1" parent="iygMJ3F_EwSeTFs6lWKo-131" vertex="1" connectable="0">
          <mxGeometry x="-0.115" relative="1" as="geometry">
            <mxPoint x="51.95" y="28.560000000000002" as="offset" />
          </mxGeometry>
        </mxCell>
        <mxCell id="iygMJ3F_EwSeTFs6lWKo-139" value="" style="edgeStyle=orthogonalEdgeStyle;html=1;verticalAlign=bottom;endArrow=open;endSize=8;strokeColor=#ff0000;exitX=0.5;exitY=0;exitDx=0;exitDy=0;entryX=1;entryY=0;entryDx=0;entryDy=0;" parent="1" source="iygMJ3F_EwSeTFs6lWKo-125" target="iygMJ3F_EwSeTFs6lWKo-36" edge="1">
          <mxGeometry relative="1" as="geometry">
            <mxPoint x="2200" y="800" as="targetPoint" />
            <Array as="points">
              <mxPoint x="2190" y="250" />
              <mxPoint x="2190" y="780" />
            </Array>
            <mxPoint x="2080" y="290" as="sourcePoint" />
          </mxGeometry>
        </mxCell>
        <mxCell id="iygMJ3F_EwSeTFs6lWKo-140" value="Creature, that we&lt;br&gt;are afraid of" style="edgeLabel;html=1;align=center;verticalAlign=middle;resizable=0;points=[];" parent="iygMJ3F_EwSeTFs6lWKo-139" vertex="1" connectable="0">
          <mxGeometry x="-0.707" y="3" relative="1" as="geometry">
            <mxPoint x="13" y="3.0000000000000036" as="offset" />
          </mxGeometry>
        </mxCell>
      </root>
    </mxGraphModel>
  </diagram>
</mxfile>
